<?xml version="1.0" encoding="UTF-8"?>
<svg viewBox="0 0 60 60" xmlns="http://www.w3.org/2000/svg">
 <path transform="matrix(2.6872 -1.389e-16 1.389e-16 2.6872 8.7902 -72.349)" d="m11.93414,39.67663c0-.62109.13281-1.19336.39844-1.7168 .26563-.52734.63672-.94141 1.11328-1.24219s1.02734-.45117 1.64063-.45117c.32422,0 .6582.03906 1.00195.11719 .34375.07422.63281.20313.86719.38672s.35156.43164.35156.74414c0,.25-.07422.45898-.22266.62695-.14453.16797-.32617.25195-.54492.25195-.10547,0-.20898-.01758-.31055-.05273l-.29883-.11133c-.09766-.04297-.20313-.07813-.31641-.10547s-.24805-.04102-.41602-.04102c-.30469,0-.5625.07227-.77344.2168s-.36328.33203-.46875.57422c-.10156.23828-.15234.50586-.15234.80273 0,.28906.05078.55859.15234.80859s.24805.44141.43945.58594c.19531.14453.42578.2168.69141.2168 .30078,0 .60352-.05664.9082-.16992s.48633-.16992.54492-.16992c.14063,0 .26953.04102.38672.12305s.20898.18945.27539.32227 .10547.26172.10547.39844c0,.28906-.12695.5332-.38086.73242s-.54883.34375-.89648.43359-.66211.14063-.94336.14063c-.46484,0-.89063-.08594-1.27734-.25781-.38281-.17188-.7168-.41602-1.00195-.73242s-.50195-.6875-.65039-1.10156c-.14844-.41797-.22266-.86133-.22266-1.33008zm-3.97266,2.31445v-4.62891c0-.27734.08594-.50781.25781-.69141 .17578-.1875.40039-.28125.67383-.28125 .22656,0 .42188.06055.58594.18164 .16797.11719.28516.25586.35156.41602 .40234-.48047.83398-.7207 1.29492-.7207 .25391,0 .47656.0918.66797.27539 .19531.17969.29297.41211.29297.69727s-.0918.50586-.27539.63867-.47852.25977-.89649.38086c-.42578.12109-.71289.27344-.86133.45703s-.22266.50391-.22266.97266v2.30273c0,.27734-.08789.51172-.26367.70313-.17188.1875-.39648.28125-.67383.28125-.27344,0-.49805-.09375-.67383-.28125-.17188-.19141-.25781-.42578-.25781-.70313zm-2.70117,0v-4.62891c0-.27734.08594-.50781.25781-.69141 .17578-.1875.40039-.28125.67383-.28125 .27734,0 .50195.09375.67383.28125 .17578.18359.26367.41406.26367.69141v4.62891c0,.27734-.08789.51172-.26367.70313-.17188.1875-.39648.28125-.67383.28125-.27344,0-.49805-.09375-.67383-.28125-.17188-.19141-.25781-.42578-.25781-.70313zm-.18164-7.29492c0-.30469.10938-.56836.32813-.79102s.48047-.33398.78516-.33398c.30859,0 .57227.10938.79102.32813s.32813.48438.32813.79688c0,.32422-.10938.59375-.32813.80859s-.48242.32227-.79102.32227c-.30469,0-.56641-.10938-.78516-.32813s-.32813-.48633-.32813-.80273zm-6.03516,7.35938 .21094-1.57617h-.45117c-.19922,0-.3457-.05664-.43945-.16992-.09375-.11719-.14063-.25586-.14063-.41602s.04688-.29492.14063-.4043 .24023-.16992.43945-.16992h.60938l.19336-1.44141h-.45703c-.19531,0-.33984-.05664-.43359-.16992-.09375-.11719-.14063-.25586-.14063-.41602s.04688-.30078.14063-.41016 .23828-.16992.43359-.16992h.63281l.25781-1.88086c.02734-.19922.08984-.35352.1875-.46289s.26172-.16406.48047-.16406c.15625,0 .28516.04492.38672.13477s.15234.20508.15234.35742c0,.06641-.01563.21094-.04688.43359l-.2168,1.58203h1.08398l.25195-1.88086c.02734-.19922.08984-.35352.1875-.46289s.26172-.16406.48047-.16406c.15625,0 .28516.04492.38672.13477s.15234.20898.15234.35742c0,.06641-.01563.21094-.04688.43359l-.2168,1.58203h.45703c.20313,0 .34961.05664.43945.16992s.14063.24609.14063.41016-.04688.29883-.14063.41602c-.09375.11328-.24023.16992-.43945.16992h-.60938l-.19336,1.44141h.45703c.20313,0 .34961.05469.43945.16406s.13477.24609.13477.41016-.04688.30273-.14063.41602-.23438.16992-.43359.16992h-.63867l-.25195,1.875c-.02734.19531-.08984.34766-.1875.45703s-.25781.16406-.48047.16406c-.15625,0-.28711-.04297-.39258-.12891-.10156-.08984-.15234-.21094-.15234-.36328 0-.07813.01758-.2207.05273-.42773l.2168-1.57617h-1.08398l-.25195,1.875c-.02734.19922-.0918.35352-.19336.46289s-.25781.1582-.48047.1582c-.15234,0-.28125-.04297-.38672-.12891-.10156-.08984-.15234-.21094-.15234-.36328 0-.07813.01758-.2207.05273-.42773zm2.67188-2.73633 .19336-1.44141h-1.08984l-.19336,1.44141h1.08984z" fill="#333"/>
</svg>
