<?xml version="1.0" encoding="UTF-8" standalone="no"?>
<svg
   xmlns:dc="http://purl.org/dc/elements/1.1/"
   xmlns:cc="http://creativecommons.org/ns#"
   xmlns:rdf="http://www.w3.org/1999/02/22-rdf-syntax-ns#"
   xmlns:svg="http://www.w3.org/2000/svg"
   xmlns="http://www.w3.org/2000/svg"
   xmlns:sodipodi="http://sodipodi.sourceforge.net/DTD/sodipodi-0.dtd"
   xmlns:inkscape="http://www.inkscape.org/namespaces/inkscape"
   width="12.402942mm"
   height="11.003168mm"
   viewBox="0 0 12.402942 11.003168"
   version="1.1"
   id="svg8"
   inkscape:version="1.0.2-2 (e86c870879, 2021-01-15)"
   sodipodi:docname="ember.svg">
  <defs
     id="defs2" />
  <sodipodi:namedview
     id="base"
     pagecolor="#ffffff"
     bordercolor="#666666"
     borderopacity="1.0"
     inkscape:pageopacity="0.0"
     inkscape:pageshadow="2"
     inkscape:zoom="18.281785"
     inkscape:cx="23.43863"
     inkscape:cy="8.6183098"
     inkscape:document-units="mm"
     inkscape:current-layer="layer1"
     inkscape:document-rotation="0"
     showgrid="false"
     fit-margin-top="0"
     fit-margin-left="0"
     fit-margin-right="0"
     fit-margin-bottom="0"
     inkscape:window-width="1431"
     inkscape:window-height="1020"
     inkscape:window-x="96"
     inkscape:window-y="0"
     inkscape:window-maximized="0" />
  <metadata
     id="metadata5">
    <rdf:RDF>
      <cc:Work
         rdf:about="">
        <dc:format>image/svg+xml</dc:format>
        <dc:type
           rdf:resource="http://purl.org/dc/dcmitype/StillImage" />
        <dc:title></dc:title>
      </cc:Work>
    </rdf:RDF>
  </metadata>
  <g
     inkscape:label="Layer 1"
     inkscape:groupmode="layer"
     id="layer1"
     transform="translate(-58.333661,-128.66448)">
    <g
       inkscape:label="Layer 1"
       id="layer1-2"
       transform="matrix(0.44666747,0,0,0.44666747,28.942409,44.394285)"
       style="stroke-width:1.00074;stroke-miterlimit:4;stroke-dasharray:none">
      <path
         style="fill:#000000;fill-opacity:1;stroke-width:1.00074;stroke-miterlimit:4;stroke-dasharray:none"
         d="m 79.240904,213.13589 c -0.34597,-0.16259 -0.62223,-0.42759 -0.81306,-0.77993 -0.11632,-0.21477 -0.14699,-1.59365 -0.047,-2.11217 l 0.059,-0.30577 -0.36147,-0.0501 c -0.43498,-0.0603 -1.738885,-0.49483 -2.478133,-0.82578 -0.186267,-0.0834 -0.719667,-0.29053 -1.185334,-0.46032 -0.465666,-0.16978 -1.151466,-0.4554 -1.524,-0.63471 -0.372533,-0.17931 -0.973518,-0.46312 -1.335522,-0.6307 -0.602587,-0.27895 -1.42291,-0.81959 -1.483424,-0.97767 -0.03128,-0.0817 0.220177,-0.33882 0.33137,-0.33882 0.04546,0 0.167915,0.092 0.272113,0.20442 0.104198,0.11243 0.340503,0.23215 0.525124,0.26604 0.18462,0.0339 0.644524,0.24671 1.02201,0.47292 0.377485,0.22621 0.74134,0.41129 0.808566,0.41129 0.06723,0 0.161321,0.0391 0.209097,0.0869 0.09256,0.0925 0.956551,0.42806 1.725,0.66985 0.256116,0.0806 0.770466,0.29184 1.143,0.46944 1.169875,0.55772 1.675856,0.64768 3.663563,0.65136 1.86031,0.003 2.31971,-0.078 3.4634,-0.61416 0.38076,-0.17849 0.89511,-0.38764 1.143,-0.46477 0.24789,-0.0771 0.73645,-0.25518 1.0857,-0.39567 0.34925,-0.14049 0.7544,-0.29933 0.90033,-0.35298 0.14594,-0.0537 0.31739,-0.13856 0.381,-0.18868 0.24197,-0.19064 1.31267,-0.70733 1.57185,-0.75853 0.14896,-0.0294 0.33584,-0.12533 0.41528,-0.21312 0.17408,-0.19235 0.50424,-0.20961 0.57318,-0.03 0.0309,0.0804 -0.0541,0.22618 -0.22377,0.38395 -0.28819,0.26793 -1.8334,1.09506 -2.04575,1.09506 -0.0684,0 -0.28813,0.10834 -0.48837,0.24076 -0.20024,0.13242 -0.53553,0.29943 -0.74508,0.37114 -0.70836,0.24239 -1.39572,0.4971 -1.651,0.61181 -0.1397,0.0628 -0.44175,0.17691 -0.67122,0.25365 -0.22947,0.0767 -0.51522,0.19225 -0.635,0.25671 -0.33831,0.18206 -1.02557,0.39976 -1.44545,0.45788 -0.318,0.044 -0.37713,0.0806 -0.35761,0.22156 0.0129,0.0928 0.0281,0.59972 0.0339,1.12637 0.01,0.86416 -0.007,0.97977 -0.17276,1.18534 -0.10081,0.12527 -0.22336,0.30398 -0.27233,0.39711 -0.10607,0.2017 -0.60175,0.46692 -0.86454,0.46257 -0.10286,-0.002 -0.33942,-0.0747 -0.52569,-0.16224 z m 1.05258,-0.81759 c 0.16075,-0.27245 0.17773,-0.41247 0.15653,-1.29116 l -0.0238,-0.98558 -0.254,-0.0221 c -0.33301,-0.0289 -0.62803,-0.0292 -0.889,-9e-4 -0.21109,0.0229 -0.21174,0.0257 -0.23562,1.02921 -0.0181,0.76115 0.005,1.03957 0.093,1.143 0.0643,0.0752 0.14056,0.20342 0.16946,0.28492 0.0393,0.11092 0.14688,0.14816 0.42784,0.14816 0.34133,0 0.39162,-0.0277 0.5556,-0.30559 z m -11.213056,-6.70823 c -0.309249,-0.18859 -0.787389,-0.64709 -1.016207,-0.97446 -0.09276,-0.13271 -0.263897,-0.36952 -0.380314,-0.52626 -0.597315,-0.8042 -0.534077,-0.65979 -0.921123,-2.1035 -0.129751,-0.48398 -0.179544,-0.91962 -0.179544,-1.57082 0,-0.85864 -0.01147,-0.91686 -0.243458,-1.23529 -0.309336,-0.42461 -0.541331,-1.21283 -0.538566,-1.82983 0.0036,-0.81441 0.279369,-1.4972 0.847915,-2.09978 0.199223,-0.21115 0.406363,-0.5363 0.460311,-0.72257 0.05395,-0.18627 0.207479,-0.50114 0.341178,-0.69971 l 0.243091,-0.36105 -0.179152,-0.25159 c -0.09853,-0.13838 -0.2214,-0.47878 -0.273036,-0.75644 -0.08907,-0.47897 -0.08282,-0.52132 0.122126,-0.82669 0.281741,-0.41979 0.919199,-1.07562 1.187978,-1.22221 0.116615,-0.0636 0.48941,-0.31567 0.828432,-0.56014 0.339023,-0.24448 0.689082,-0.4445 0.777909,-0.4445 0.08883,0 0.682928,-0.15802 1.320222,-0.35114 0.988543,-0.29957 1.277277,-0.35241 1.965992,-0.35983 l 0.807275,-0.009 0.558617,0.44388 c 0.524169,0.41651 0.8325,0.8448 0.8325,1.15642 0,0.1033 0.08725,0.13537 0.368366,0.13537 0.524563,0 0.886149,0.14434 0.917767,0.36636 0.02971,0.20861 0.223109,0.22315 0.7882,0.0593 0.987077,-0.28627 1.595857,-0.31406 3.561817,-0.16263 1.07313,0.0827 1.23154,0.0781 1.34862,-0.039 0.13964,-0.13965 0.5366,-0.22915 0.88414,-0.19937 0.21346,0.0183 0.26876,-0.0525 0.55914,-0.71603 0.12193,-0.27861 0.31375,-0.45084 1.04464,-0.93798 0.14395,-0.0959 0.38489,-0.14757 0.68731,-0.1473 0.49777,4.6e-4 1.87855,0.25226 2.159,0.39373 0.0931,0.047 0.43603,0.15503 0.762,0.24012 0.66069,0.17245 1.4073,0.5409 1.74958,0.8634 0.12407,0.1169 0.3881,0.29427 0.58675,0.39416 0.19864,0.0999 0.42098,0.28036 0.49408,0.40106 0.0731,0.1207 0.25675,0.38359 0.40809,0.5842 0.15134,0.20062 0.27517,0.4246 0.27517,0.49774 0,0.33111 -0.22755,1.06306 -0.38147,1.22704 l -0.1698,0.1809 0.27563,0.36632 c 0.2247,0.29862 0.27564,0.44385 0.27564,0.78583 0,0.29478 0.0378,0.43399 0.127,0.46824 0.0698,0.0268 0.127,0.094 0.127,0.14945 0,0.101 0.0283,0.14303 0.51793,0.77016 0.41883,0.5364 0.60544,1.03887 0.5503,1.48167 -0.1092,0.87677 -0.17358,1.05134 -0.45243,1.22676 l -0.27061,0.17024 -0.003,1.40325 c -0.003,1.2305 -0.0283,1.48686 -0.20657,2.08248 -0.24208,0.8088 -0.46979,1.27545 -0.81321,1.66659 -0.13942,0.15879 -0.25348,0.33777 -0.25348,0.39774 0,0.16607 -1.17563,1.25994 -1.42004,1.32129 -0.38788,0.0974 -0.69743,-0.24874 -0.34368,-0.38426 0.10856,-0.0416 0.40693,-0.3125 0.66305,-0.60204 0.25612,-0.28953 0.60467,-0.68173 0.77457,-0.87155 0.17707,-0.19783 0.3291,-0.46956 0.35622,-0.63665 0.026,-0.16034 0.10355,-0.35367 0.17229,-0.42962 0.0687,-0.076 0.22277,-0.47555 0.34228,-0.88797 0.3474,-1.1988 0.29191,-3.28916 -0.11012,-4.14845 -0.19524,-0.4173 -0.3743,-0.83716 -0.52514,-1.23139 -0.13968,-0.36503 -1.01135,-1.27685 -1.54287,-1.61393 -0.9257,-0.58706 -1.24177,-0.70354 -1.7477,-0.64408 -0.53867,0.0633 -1.6592,0.58571 -2.24543,1.04683 -0.51143,0.40229 -0.6576,-0.13287 -0.15193,-0.55631 0.52564,-0.44018 0.64943,-0.52076 0.80433,-0.52357 0.27631,-0.005 0.14987,-0.14151 -0.33867,-0.36557 -1.22461,-0.56166 -1.55473,-0.67966 -2.34847,-0.83943 -2.01676,-0.40595 -2.41966,-0.45806 -3.03394,-0.39242 -0.64357,0.0688 -0.90409,-0.0336 -0.90409,-0.35536 0,-0.27847 0.19359,-0.32474 1.29293,-0.309 l 1.07775,0.0154 v -0.31077 l -1e-5,-0.31077 -1.12184,-0.0279 c -1.55852,-0.0387 -3.341166,0.0587 -3.746497,0.20482 -0.212349,0.0765 -0.347729,0.18224 -0.362965,0.28335 -0.02292,0.15213 0.03859,0.16058 1.085412,0.14909 1.07676,-0.0118 1.1123,-0.006 1.19717,0.17979 0.0613,0.13454 0.0594,0.24441 -0.006,0.36724 -0.0881,0.16464 -0.14644,0.17252 -0.96121,0.12982 -0.761742,-0.0399 -1.011237,-0.0135 -2.048071,0.21644 -0.649364,0.14404 -1.253206,0.26189 -1.341871,0.26189 -0.08867,0 -0.281268,0.0548 -0.428006,0.12171 -0.146737,0.067 -0.510731,0.22228 -0.808874,0.34518 -0.609246,0.25115 -0.939588,0.44763 -0.939588,0.55885 0,0.0412 0.04762,0.0754 0.105833,0.0761 0.194663,0.002 0.995495,0.79445 0.995156,0.98465 -5.08e-4,0.29808 -0.243273,0.31147 -0.562659,0.031 -0.159622,-0.14015 -0.329539,-0.25481 -0.377592,-0.25481 -0.04805,0 -0.208653,-0.0902 -0.356887,-0.20036 -0.32409,-0.24093 -0.892894,-0.44867 -1.413858,-0.51638 -0.421535,-0.0548 -1.178225,0.19762 -1.595406,0.53217 -0.122973,0.0986 -0.427997,0.34242 -0.677831,0.54177 -0.479413,0.38255 -0.833827,0.87942 -1.224795,1.71713 -0.130399,0.2794 -0.292809,0.61773 -0.36091,0.75185 -0.207285,0.40822 -0.311382,1.46158 -0.2562,2.59248 0.05766,1.18168 0.263282,2.05006 0.600731,2.53699 0.117563,0.16965 0.213751,0.35211 0.213751,0.40549 0,0.25607 0.585046,0.97005 1.395177,1.70264 0.47326,0.42796 0.492938,0.46088 0.341654,0.5715 -0.209339,0.15307 -0.288684,0.14794 -0.59431,-0.0384 z m -2.263044,-7.69701 c 0.09469,-0.26776 0.196993,-0.63089 0.227339,-0.80695 0.04997,-0.28992 0.249746,-0.66322 0.596856,-1.11527 0.165866,-0.21601 0.162799,-0.24 -0.0756,-0.5913 -0.248639,-0.36639 -0.252653,-0.3625 -0.818959,0.79374 -0.461609,0.94247 -0.508614,1.26423 -0.269616,1.84557 0.08149,0.19823 0.152587,0.36055 0.157989,0.36073 0.0054,1.6e-4 0.0873,-0.21876 0.181988,-0.48652 z m 26.17535,-0.71967 c 0.004,-0.12806 -0.0316,-0.23283 -0.0782,-0.23283 -0.0466,0 -0.0847,-0.0571 -0.0847,-0.127 0,-0.0699 -0.0335,-0.127 -0.0744,-0.127 -0.0409,0 -0.1244,-0.12383 -0.18552,-0.27517 -0.0611,-0.15134 -0.17879,-0.35136 -0.26151,-0.4445 -0.0827,-0.0931 -0.22261,-0.2623 -0.31089,-0.37592 l -0.16051,-0.20659 -0.099,0.18507 c -0.0818,0.15293 -0.0691,0.22927 0.0731,0.43943 0.39695,0.58656 0.48238,0.73259 0.56982,0.97401 0.0506,0.1397 0.16083,0.4445 0.24497,0.67734 l 0.15298,0.42333 0.10367,-0.33867 c 0.057,-0.18626 0.1066,-0.44344 0.11018,-0.5715 z m -24.011147,-2.70353 c 0.13164,-0.13125 0.303654,-0.23863 0.382253,-0.23863 0.0786,0 0.275694,-0.0698 0.437988,-0.15503 0.528845,-0.27784 1.066519,-0.38035 1.690675,-0.32234 0.560515,0.0521 0.602044,0.0429 0.989533,-0.21859 0.363083,-0.24504 0.932838,-0.47178 2.525538,-1.00505 0.2794,-0.0935 0.7311,-0.20397 1.003778,-0.24538 0.272678,-0.0414 0.50578,-0.0871 0.518006,-0.10161 0.01223,-0.0145 -0.0182,-0.26503 -0.06761,-0.55678 l -0.08983,-0.53044 -0.766838,0.0448 c -0.421761,0.0247 -0.919237,0.0815 -1.105504,0.12625 -0.186267,0.0448 -0.491067,0.0819 -0.677333,0.0826 -0.3419,10e-4 -1.197367,0.2574 -2.286,0.6846 -0.325967,0.12792 -0.710086,0.27648 -0.853597,0.33012 -0.143512,0.0536 -0.505462,0.24796 -0.804334,0.43179 -0.298871,0.18383 -0.602733,0.33427 -0.675248,0.33429 -0.154992,6e-5 -0.577251,0.32921 -1.031925,0.80438 -0.304074,0.31779 -0.320765,0.36216 -0.270718,0.71967 0.08185,0.58472 0.172987,0.6398 0.534529,0.32311 0.169011,-0.14805 0.414998,-0.37656 0.546639,-0.50781 z m 22.578317,0.14112 c 0,-0.43604 -0.0114,-0.45674 -0.50203,-0.91098 -0.3004,-0.27811 -0.65836,-0.51806 -0.89126,-0.59741 -0.21407,-0.0729 -0.48859,-0.21079 -0.61005,-0.30633 -0.12145,-0.0955 -0.26331,-0.17455 -0.31524,-0.17558 -0.0519,-0.001 -0.18967,-0.0764 -0.30608,-0.16745 -0.11642,-0.0911 -0.28787,-0.16793 -0.381,-0.17081 -0.0931,-0.003 -0.37889,-0.11803 -0.635,-0.25587 -0.25612,-0.13784 -0.54187,-0.25079 -0.635,-0.25101 -0.0931,-2.1e-4 -0.43604,-0.0947 -0.762,-0.2099 -0.32597,-0.11523 -0.74507,-0.21122 -0.93134,-0.21331 -0.18626,-0.002 -0.49106,-0.0411 -0.67733,-0.0866 -0.18627,-0.0455 -0.69109,-0.10343 -1.12183,-0.12863 l -0.78317,-0.0458 v 0.54491 c 0,0.58011 0.0492,0.6477 0.47133,0.6477 0.22048,0 1.60932,0.44202 1.97233,0.62773 0.12284,0.0628 0.38588,0.14126 0.58453,0.17427 0.20886,0.0347 0.58381,0.21111 0.889,0.41826 0.41807,0.28376 0.57182,0.34553 0.73948,0.2971 0.52292,-0.15105 1.23003,-0.0563 1.905,0.25534 0.0931,0.043 0.31156,0.12167 0.48541,0.17483 0.17985,0.055 0.3935,0.2054 0.49573,0.34897 0.24931,0.35012 0.7662,0.67193 0.90269,0.562 0.0605,-0.0487 0.10583,-0.27637 0.10583,-0.53141 z m -21.75933,-2.45327 c 0.442383,-0.22619 0.877797,-0.44729 0.967587,-0.49134 0.08979,-0.044 0.707804,-0.26596 1.373366,-0.49313 1.061693,-0.36238 1.516393,-0.46889 2.71738,-0.6365 l 0.274666,-0.0383 -0.144036,-0.22909 c -0.135801,-0.21599 -0.413497,-0.59114 -0.63308,-0.85524 -0.126624,-0.1523 -1.922806,-0.0751 -2.648185,0.11389 -0.863519,0.22491 -2.668035,1.18481 -3.251086,1.72939 l -0.519279,0.48501 v 0.53033 c 0,0.29168 0.03957,0.60425 0.08792,0.69461 0.08425,0.15742 0.106377,0.15252 0.529167,-0.11703 0.242684,-0.15473 0.803194,-0.46638 1.245577,-0.69257 z m 21.70794,0.75426 c 0.0283,-0.0737 0.0514,-0.344 0.0514,-0.60076 0,-0.47879 -0.22737,-0.95865 -0.45425,-0.95865 -0.0572,0 -0.25465,-0.15431 -0.43873,-0.34292 -0.30222,-0.30965 -0.7238,-0.58841 -0.88989,-0.58841 -0.0349,0 -0.29122,-0.1287 -0.56951,-0.28601 -0.80105,-0.45277 -1.72153,-0.72044 -2.6934,-0.7832 -1.26066,-0.0814 -1.38811,-0.0413 -1.8594,0.58527 l -0.39585,0.52627 0.45435,0.0666 c 0.91428,0.13401 1.73915,0.32999 2.35935,0.56054 0.34925,0.12983 0.76835,0.28322 0.93133,0.34088 0.81139,0.28701 1.09044,0.40591 1.45441,0.61968 0.21785,0.12795 0.43602,0.23263 0.48483,0.23263 0.0488,0 0.3444,0.17145 0.65685,0.381 0.60242,0.40402 0.82506,0.46457 0.90852,0.24708 z m -20.560679,11.51812 c -0.136836,-0.12681 -0.365223,-0.27942 -0.507527,-0.33913 -0.246056,-0.10324 -0.561905,-0.38661 -1.238712,-1.11133 -0.166455,-0.17824 -0.424489,-0.61876 -0.573408,-0.97893 -0.364068,-0.88053 -0.449982,-2.12186 -0.226493,-3.27247 0.08244,-0.42442 0.176468,-0.77167 0.208957,-0.77167 0.03249,0 0.144909,-0.18993 0.249824,-0.42207 0.372067,-0.82327 1.587345,-1.36143 2.511441,-1.11215 0.500568,0.13503 1.089302,0.55621 1.434134,1.02596 0.377131,0.51376 0.766877,1.63548 0.83849,2.41326 0.08527,0.92605 -0.07219,2.49804 -0.293707,2.93225 -0.11693,0.2292 -0.181734,0.50416 -0.176245,0.7478 0.0081,0.35992 -0.01706,0.40618 -0.382011,0.70213 -0.289205,0.23452 -0.470132,0.31706 -0.696514,0.31775 -0.168203,5.1e-4 -0.439386,0.023 -0.60263,0.05 -0.244728,0.0405 -0.340461,0.009 -0.545599,-0.18145 z m 1.040335,-0.74986 c 0.554707,-0.35017 0.787421,-0.8206 0.988548,-1.99834 0.203218,-1.18998 0.166085,-1.69017 -0.22024,-2.96666 -0.13602,-0.44944 -0.266649,-0.66044 -0.693901,-1.12082 -0.35556,-0.38312 -0.610556,-0.58363 -0.785905,-0.61796 -0.387334,-0.0758 -0.965638,0.1129 -1.237418,0.40384 -0.143302,0.15341 -0.289591,0.23618 -0.365752,0.20696 -0.06981,-0.0268 -0.126928,-0.005 -0.126928,0.049 0,0.0538 -0.07188,0.17637 -0.159744,0.27251 -0.08786,0.0961 -0.220317,0.38714 -0.294353,0.64668 -0.489594,1.71631 -0.102909,3.45888 0.997913,4.49702 0.442942,0.41772 1.149842,0.83076 1.421824,0.83076 0.08492,0 0.299096,-0.0914 0.475956,-0.203 z m -1.056857,-2.39559 c -0.14097,-0.0276 -0.193949,-0.1179 -0.236816,-0.40376 -0.08244,-0.54976 0.02663,-1.23163 0.196485,-1.22829 0.336685,0.007 0.568304,0.45268 0.615737,1.18585 0.03093,0.47816 -0.0583,0.54736 -0.575406,0.4462 z m 16.516871,3.28418 c -0.47238,-0.0465 -0.54491,-0.0826 -0.90812,-0.45117 -0.25,-0.25372 -0.37664,-0.44773 -0.34538,-0.52917 0.0271,-0.0707 0.0817,-0.12859 0.12135,-0.12859 0.0396,0 -0.0406,-0.23812 -0.17832,-0.52916 -0.13769,-0.29105 -0.25066,-0.66252 -0.25105,-0.8255 -4.2e-4,-0.16299 -0.0414,-0.54399 -0.0913,-0.84667 -0.17213,-1.04614 0.17173,-2.82179 0.66881,-3.45361 0.1359,-0.17273 0.27347,-0.39879 0.30573,-0.50236 0.11473,-0.36837 1.18852,-0.9547 1.74844,-0.9547 0.32035,0 1.21703,0.29202 1.59892,0.52071 0.24567,0.14712 0.73224,1.20563 0.90662,1.97234 0.16301,0.71671 0.1153,2.16448 -0.0908,2.75629 -0.073,0.20955 -0.13327,0.49019 -0.13394,0.62366 -9.9e-4,0.19557 -0.1614,0.39651 -0.82674,1.03564 -0.45402,0.43614 -0.8702,0.79367 -0.92484,0.79451 -0.0546,8.4e-4 -0.27405,0.13487 -0.48757,0.29785 -0.21352,0.16299 -0.43551,0.29053 -0.49332,0.28343 -0.0578,-0.007 -0.33612,-0.0357 -0.61849,-0.0635 z m 1.02139,-0.87993 c 0.18627,-0.0679 0.46505,-0.25061 0.61952,-0.40603 0.26118,-0.26278 0.27035,-0.29027 0.13086,-0.39227 -0.1306,-0.0955 -0.13407,-0.12422 -0.0269,-0.22201 0.0677,-0.0618 0.27833,-0.15617 0.468,-0.20975 0.29569,-0.0835 0.37043,-0.15491 0.52433,-0.50068 0.2312,-0.51946 0.38206,-1.42866 0.27137,-1.63549 -0.0452,-0.0845 -0.0822,-0.21583 -0.0822,-0.29185 0,-0.2087 -0.41833,-0.7143 -0.77982,-0.9425 -0.33981,-0.21451 -0.39791,-0.36972 -0.19993,-0.53404 0.0944,-0.0783 0.17338,-0.0711 0.35984,0.033 0.3979,0.22216 0.57486,0.33916 0.63196,0.41782 0.0299,0.0412 0.0358,-0.11119 0.013,-0.33866 -0.0507,-0.50706 -0.43268,-1.10356 -0.68293,-1.06645 -0.0991,0.0147 -0.21795,-0.0563 -0.29758,-0.17784 -0.17209,-0.26265 -0.64017,-0.48163 -1.02947,-0.48163 -0.25966,0 -0.40016,0.0835 -0.89039,0.52917 -0.40967,0.37241 -0.60924,0.62321 -0.67374,0.84666 -0.2925,1.01334 -0.32074,1.29591 -0.0856,0.85655 0.0762,-0.14229 0.33611,-0.32566 0.71999,-0.50787 0.64374,-0.30556 0.97335,-0.35493 1.12773,-0.16891 0.149,0.17953 0.0201,0.39173 -0.23797,0.39173 -0.12581,0 -0.30271,0.0559 -0.3931,0.12431 -0.0904,0.0684 -0.2231,0.12552 -0.29489,0.127 -0.0718,10e-4 -0.2999,0.17526 -0.50689,0.38617 l -0.37636,0.38348 -10e-4,0.79671 c -0.001,0.7864 0.002,0.80044 0.27693,1.08401 0.28288,0.29231 0.87724,0.65432 1.07427,0.65432 0.16414,0 0.29858,0.20186 0.21958,0.32969 -0.0483,0.0782 -0.18194,0.0983 -0.43966,0.0661 -0.77793,-0.0971 -0.93248,-0.15735 -1.09736,-0.42774 -0.18133,-0.29738 -0.20656,-0.1748 -0.0673,0.32692 0.11746,0.4231 0.33609,0.70402 0.73609,0.94578 0.33125,0.20023 0.45057,0.20074 0.98965,0.004 z m 0.15488,-1.98798 c -0.0545,-0.0347 -0.12532,-0.16744 -0.15735,-0.29503 -0.0512,-0.20398 -0.0987,-0.23199 -0.39327,-0.23199 -0.41534,0 -0.66259,-0.12536 -0.66259,-0.33594 0,-0.19216 0.24105,-0.28445 0.54423,-0.20836 0.32903,0.0826 0.47177,-0.0871 0.47177,-0.56068 0,-0.25704 0.049,-0.45593 0.13304,-0.53997 0.16371,-0.1637 0.16287,-0.16371 0.32885,0.002 0.0971,0.0971 0.12008,0.21658 0.0814,0.42278 -0.0297,0.15809 -0.0294,0.38511 5.1e-4,0.50448 0.043,0.17153 0.0907,0.20554 0.22722,0.16221 0.23954,-0.076 0.66827,0.11671 0.66827,0.30042 0,0.17917 -0.16394,0.25279 -0.56296,0.25279 -0.25889,0 -0.28836,0.0213 -0.24008,0.17339 0.0918,0.28924 -0.18714,0.51389 -0.43908,0.35363 z m -9.92731,1.17477 c -0.39967,-0.0542 -0.51125,-0.17421 -0.3141,-0.33783 0.18427,-0.15293 2.50555,-0.15073 2.60251,0.002 0.0401,0.0634 0.0609,0.15334 0.0463,0.19991 -0.0555,0.17603 -1.44223,0.25649 -2.33466,0.13545 z m -0.19707,-0.94657 c -0.0815,-0.0475 -0.14817,-0.13899 -0.14817,-0.20339 0,-0.17572 0.1934,-0.20401 1.39851,-0.20459 1.17589,-5.9e-4 1.41967,0.0546 1.23337,0.27907 -0.15439,0.18603 -0.65041,0.25925 -1.00957,0.14902 -0.19864,-0.061 -0.3346,-0.0649 -0.38826,-0.0112 -0.10822,0.10822 -0.8959,0.10179 -1.08588,-0.009 z m -4.435454,-5.79264 c -0.02926,-0.0762 -0.01408,-0.17774 0.03372,-0.22554 0.138015,-0.13802 0.401235,-0.045 0.401235,0.14179 0,0.21536 -0.357998,0.2843 -0.434954,0.0838 z m 10.891284,-0.0849 c 0,-0.19323 0.031,-0.21935 0.23284,-0.19612 0.16746,0.0193 0.23283,0.0743 0.23283,0.19612 0,0.12179 -0.0654,0.17685 -0.23283,0.19612 -0.20183,0.0232 -0.23284,-0.003 -0.23284,-0.19612 z"
         id="path979" />
    </g>
  </g>
</svg>
