<?xml version="1.0" encoding="UTF-8" standalone="no"?>
<!-- Created with Inkscape (http://www.inkscape.org/) -->

<svg
   width="480mm"
   height="130mm"
   viewBox="0 0 480 130"
   version="1.1"
   id="svg5"
   inkscape:version="1.1.1 (3bf5ae0d25, 2021-09-20)"
   sodipodi:docname="logo-text-inkscape.svg"
   xmlns:inkscape="http://www.inkscape.org/namespaces/inkscape"
   xmlns:sodipodi="http://sodipodi.sourceforge.net/DTD/sodipodi-0.dtd"
   xmlns="http://www.w3.org/2000/svg"
   xmlns:svg="http://www.w3.org/2000/svg">
  <sodipodi:namedview
     id="namedview7"
     pagecolor="#ffffff"
     bordercolor="#666666"
     borderopacity="1.0"
     inkscape:pageshadow="2"
     inkscape:pageopacity="0.0"
     inkscape:pagecheckerboard="0"
     inkscape:document-units="mm"
     showgrid="false"
     inkscape:zoom="0.6306591"
     inkscape:cx="776.96492"
     inkscape:cy="537.53287"
     inkscape:window-width="1920"
     inkscape:window-height="1057"
     inkscape:window-x="0"
     inkscape:window-y="0"
     inkscape:window-maximized="1"
     inkscape:current-layer="layer1"
     showguides="true"
     inkscape:guide-bbox="true">
    <sodipodi:guide
       position="45.569989,-41.130532"
       orientation="0,-1"
       id="guide1279" />
    <sodipodi:guide
       position="33.495784,-41.130532"
       orientation="0,-1"
       id="guide1281" />
  </sodipodi:namedview>
  <defs
     id="defs2" />
  <g
     inkscape:label="Ebene 1"
     inkscape:groupmode="layer"
     id="layer1">
    <path
       d="m 38.784563,11.289319 v 13.0048 h 5.291667 v -13.0048 z m 12.27164,0 v 13.0048 h 5.291666 v -13.0048 z m 12.271639,0 v 13.0048 h 5.291667 v -13.0048 z m 12.27164,0 v 13.0048 h 5.291666 v -13.0048 z m 12.271639,0 v 13.0048 h 5.291667 v -13.0048 z M 12.263789,37.811152 v 5.291667 h 13.004799 c 6e-6,-1.46132 -4e-6,-3.803915 0,-5.291667 z m 94.416561,0 c 0,1.882405 0,3.627438 0,5.291667 h 13.0048 v -5.291667 z m -94.416561,12.27164 v 5.291666 h 13.004799 c 6e-6,-1.482513 -6e-6,-3.832489 0,-5.291666 z m 94.416561,0 c 0,1.456028 0,3.933031 0,5.291666 h 13.0048 V 50.082792 Z M 12.263789,62.354431 v 5.291667 h 13.004799 c 4e-6,-1.618668 -5e-6,-3.745706 0,-5.291667 z m 94.416561,0 c -1e-5,1.309741 10e-6,3.958696 0,5.291667 h 13.0048 v -5.291667 z m -94.416561,12.27164 v 5.291666 h 13.004799 c -1e-6,-1.869784 -1e-6,-3.544358 0,-5.291666 z m 94.416561,0 c -1e-5,1.443513 10e-6,3.704166 0,5.291666 h 13.0048 V 74.626071 Z M 12.263789,86.89771 v 5.291667 h 13.004799 c -9e-6,-2.235862 5e-6,-3.227652 0,-5.291667 z m 94.416561,0 c -1e-5,1.857349 10e-6,3.169444 0,5.291667 h 13.0048 V 86.89771 Z m -67.894728,18.80817 v 13.0048 h 5.291666 v -13.0048 z m 12.271639,0 v 13.0048 h 5.291667 v -13.0048 z m 12.271639,0 v 13.0048 h 5.291667 v -13.0048 z m 12.27164,0 v 13.0048 h 5.291667 v -13.0048 z m 12.271639,0 v 13.0048 h 5.291667 v -13.0048 z"
       fill="#acacac"
       id="path1883"
       style="stroke-width:0.264583" />
    <path
       d="m 106.67929,26.939953 c 0,-1.461294 -1.18454,-2.645834 -2.64583,-2.645834 H 27.912834 c -1.461293,0 -2.645833,1.18454 -2.645833,2.645834 0,23.14231 -2.6e-4,37.912145 0,76.120627 0,1.46129 1.18454,2.64583 2.645833,2.64583 h 76.120626 c 1.46129,0 2.64583,-1.18454 2.64583,-2.64583 2.7e-4,-40.706149 2.7e-4,-40.243128 2.7e-4,-76.120627 z"
       fill="#262626"
       id="path1885"
       style="stroke-width:0.264583" />
    <path
       d="M 90.976271,62.293048 C 90.742244,61.666303 90.142754,61.249531 89.472723,61.249531 H 70.117394 L 81.281753,39.542586 c 0.351049,-0.682837 0.16991,-1.517968 -0.434393,-1.992445 -0.29173,-0.230823 -0.642779,-0.34462 -0.992214,-0.34462 -0.373486,0 -0.746972,0.13144 -1.046718,0.38952 L 43.544761,68.051228 c -0.506518,0.437594 -0.689266,1.144482 -0.455242,1.771226 0.23403,0.626745 0.83193,1.045105 1.501934,1.045105 H 63.946782 L 52.782424,92.574504 c -0.351049,0.682837 -0.16991,1.517968 0.434393,1.992445 0.291729,0.23082 0.642778,0.34462 0.992214,0.34462 0.373485,0 0.746971,-0.13144 1.046718,-0.38952 L 90.519415,64.065862 c 0.508132,-0.437594 0.689266,-1.144482 0.45683,-1.772841 z"
       fill="#393939"
       stroke-width="1.60293"
       id="path1887" />
    <g
       aria-label="MicroZig"
       transform="scale(0.97877737,1.0216828)"
       id="text1714"
       style="font-size:112.46px;line-height:1.25;font-family:'Dash Horizon';-inkscape-font-specification:'Dash Horizon, Normal';fill:#acacac;stroke-width:2.86448;fill-opacity:1">
      <path
         d="m 164.90555,66.367278 -3.03642,-42.847259 h -23.6166 l 7.75974,9.44664 -23.72906,90.867681 19.56804,-20.58018 9.67156,-37.224262 2.8115,30.3642 h 5.84792 l 18.33098,-29.12714 -9.22172,35.987202 h 14.16996 l 20.91756,-79.734141 h -13.38274 z"
         id="path1816"
         style="fill:#acacac;fill-opacity:1" />
      <path
         d="m 206.17822,50.285498 h 13.72012 l 3.3738,-12.820439 H 209.55202 Z M 192.34564,103.81646 H 205.391 L 218.66128,54.558978 H 205.391 Z"
         id="path1818"
         style="fill:#acacac;fill-opacity:1" />
      <path
         d="m 254.64853,54.558978 h -19.1182 c -4.83578,0 -9.33418,1.79936 -10.45878,6.97252 -1.79936,5.84792 -8.9968,30.9265 -8.9968,35.19998 0,4.835782 3.71118,6.410222 7.8722,6.410222 h 19.1182 c 12.14568,0 12.25814,-13.382742 14.73226,-22.379542 l -15.1821,7.19744 -1.1246,4.83578 h -11.47092 l 7.3099,-28.00254 h 11.47092 l -1.1246,4.04856 11.8083,5.623 c 1.01214,-4.04856 3.3738,-9.67156 3.3738,-13.94504 0,-4.4984 -4.38594,-5.96038 -8.20958,-5.96038 z"
         id="path1820"
         style="fill:#acacac;fill-opacity:1" />
      <path
         d="m 300.30724,54.446518 c -4.38594,0 -8.88434,0.5623 -12.9329,0.78722 l 0.22492,-0.67476 h -22.94184 l 7.08498,8.88434 -9.89648,39.698382 h 12.70798 l 10.1214,-37.899022 h 9.44664 l -2.8115,10.45878 14.84472,-5.73546 c 0.67476,-3.14888 2.47412,-6.63514 2.47412,-9.67156 0,-4.72332 -4.4984,-5.84792 -8.32204,-5.84792 z"
         id="path1822"
         style="fill:#acacac;fill-opacity:1" />
      <path
         d="m 343.60447,54.558978 h -20.35526 c -4.83578,0 -9.22172,1.79936 -10.45878,6.97252 -1.6869,6.29776 -8.9968,31.03896 -8.9968,35.87474 0,4.498402 4.04856,5.735462 7.98466,5.735462 h 20.2428 c 4.94824,0 9.22172,-1.91182 10.6837,-6.972522 1.34952,-5.28562 9.22172,-31.93864 9.22172,-35.64982 0,-4.4984 -4.38594,-5.96038 -8.32204,-5.96038 z m -6.07284,10.23386 -7.3099,28.00254 h -12.3706 l 7.3099,-28.00254 z"
         id="path1824"
         style="fill:#acacac;fill-opacity:1" />
      <path
         d="m 414.34182,23.520019 h -59.0415 l 14.16996,11.35846 h 23.72906 l -42.95972,60.953319 -1.46198,7.422362 H 406.2447 L 395.78592,91.895698 h -26.76548 l 43.2971,-61.065779 z"
         id="path1826"
         style="fill:#acacac;fill-opacity:1" />
      <path
         d="m 423.22628,50.285498 h 13.72012 l 3.3738,-12.820439 H 426.60008 Z M 409.3937,103.81646 h 13.04536 l 13.27028,-49.257482 h -13.27028 z"
         id="path1828"
         style="fill:#acacac;fill-opacity:1" />
      <path
         d="m 467.08577,55.346198 c -4.04856,-0.33738 -8.09712,-0.89968 -12.25814,-0.89968 -6.7476,0 -14.16996,3.82364 -16.19424,10.79616 -2.02428,7.3099 -6.97252,20.69264 -6.97252,28.22746 0,11.246002 15.29456,9.671562 22.492,9.671562 l -1.57444,6.07284 h -15.96932 l -10.57124,10.23386 h 28.33992 c 4.04856,0 9.67156,-2.36166 10.6837,-6.7476 l 15.51948,-58.141822 h -13.27028 z m -10.1214,37.44918 h -9.22172 c -0.5623,0 -2.58658,0 -2.92396,-0.67476 2.36166,-8.09712 4.27348,-16.41916 6.41022,-24.29136 0.67476,-2.58658 3.3738,-3.14888 5.51054,-3.14888 2.47412,0 5.28562,0.11246 7.75974,0.33738 z"
         id="path1830"
         style="fill:#acacac;fill-opacity:1" />
    </g>
    <path
       d="M 89.917938,61.234715 C 89.683911,60.60797 89.084421,60.191198 88.41439,60.191198 H 69.059061 L 80.223419,38.484252 c 0.351049,-0.682836 0.16991,-1.517967 -0.434393,-1.992444 -0.291729,-0.230823 -0.642778,-0.34462 -0.992214,-0.34462 -0.373485,0 -0.746971,0.13144 -1.046718,0.389519 L 42.486428,66.992895 c -0.506518,0.437594 -0.689266,1.144481 -0.455242,1.771226 0.234029,0.626745 0.831929,1.045104 1.501934,1.045104 H 62.888449 L 51.72409,91.516171 c -0.351049,0.682837 -0.16991,1.517967 0.434393,1.992445 0.29173,0.23082 0.642779,0.344619 0.992214,0.344619 0.373486,0 0.746972,-0.131439 1.046718,-0.389519 L 89.461082,63.007529 c 0.508132,-0.437595 0.689266,-1.144482 0.456829,-1.772841 z"
       fill="#ffac33"
       stroke-width="1.60293"
       id="path1891" />
  </g>
</svg>
