<svg viewBox="0 0 426 426" xmlns="http://www.w3.org/2000/svg"><path d="M110.24 10v49.152h20V10zm46.381 0v49.152h20V10zm46.381 0v49.152h20V10zm46.381 0v49.152h20V10zm46.381 0v49.152h20V10zM10.004 110.24v20h49.152v-20zm356.85 0v20h49.152v-20zm-356.85 46.381v20h49.152v-20zm356.85 0v20h49.152v-20zm-356.85 46.381v20h49.152v-20zm356.85 0v20h49.152v-20zm-356.85 46.381v20h49.152v-20zm356.85 0v20h49.152v-20zm-356.85 46.381v20h49.152v-20zm356.85 0v20h49.152v-20zm-256.61 71.086v49.152h20V366.85zm46.381 0v49.152h20V366.85zm46.381 0v49.152h20V366.85zm46.381 0v49.152h20V366.85zm46.381 0v49.152h20V366.85z" fill="#acacac"/><path d="M366.85 69.152c0-5.523-4.477-10-10-10H69.15c-5.523 0-10 4.477-10 10v287.7c0 5.523 4.477 10 10 10h287.7c5.523 0 10-4.477 10-10l.001-287.7z" fill="#262626"/><path d="M307.5 202.77a6.068 6.068 0 0 0-5.683-3.944h-73.154l42.196-82.042a6.05 6.05 0 0 0-1.642-7.53 6.032 6.032 0 0 0-3.75-1.303 6.061 6.061 0 0 0-3.956 1.472l-133.28 115.11a6.054 6.054 0 0 0-1.72 6.695 6.066 6.066 0 0 0 5.676 3.95h73.154l-42.196 82.042a6.05 6.05 0 0 0 1.642 7.53 6.032 6.032 0 0 0 3.75 1.303 6.061 6.061 0 0 0 3.956-1.473l133.28-115.11a6.063 6.063 0 0 0 1.727-6.7z" fill="#393939"/><path d="M303.5 198.77a6.068 6.068 0 0 0-5.683-3.944h-73.154l42.196-82.042a6.05 6.05 0 0 0-1.642-7.53 6.032 6.032 0 0 0-3.75-1.303 6.061 6.061 0 0 0-3.956 1.472l-133.28 115.11a6.054 6.054 0 0 0-1.72 6.695 6.066 6.066 0 0 0 5.676 3.95h73.154l-42.196 82.042a6.05 6.05 0 0 0 1.642 7.53 6.032 6.032 0 0 0 3.75 1.303 6.061 6.061 0 0 0 3.956-1.473l133.28-115.11a6.063 6.063 0 0 0 1.727-6.7z" fill="#ffac33"/></svg>