<svg width="480mm" height="130mm" viewBox="0 0 480 130" xmlns="http://www.w3.org/2000/svg">
  <style>
    .text { fill: #262626; }
    @media (prefers-color-scheme: dark) {
      .text { fill: #acacac; } 
    }
    </style>
  <path fill="#acacac" d="M38.785 11.289v13.005h5.292V11.289zm12.272 0v13.005h5.292V11.289zm12.272 0v13.005h5.292V11.289zm12.272 0v13.005h5.292V11.289zm12.272 0v13.005h5.292V11.289zM12.266 37.811v5.292h13.005V37.81zm94.417 0v5.292h13.005V37.81zM12.266 50.083v5.292h13.005v-5.292zm94.417 0v5.292h13.005v-5.292zM12.266 62.355v5.292h13.005v-5.292zm94.417 0v5.292h13.005v-5.292zM12.266 74.627v5.292h13.005v-5.292zm94.417 0v5.292h13.005v-5.292zM12.266 86.899v5.292h13.005v-5.292zm94.417 0v5.292h13.005v-5.292zm-67.895 18.808v13.005h5.292v-13.005zm12.272 0v13.005h5.292v-13.005zm12.272 0v13.005h5.292v-13.005zm12.272 0v13.005h5.292v-13.005zm12.272 0v13.005h5.292v-13.005z" />
  <path fill="#262626" d="M106.68 26.94a2.646 2.646 0 0 0-2.646-2.646h-76.12a2.646 2.646 0 0 0-2.647 2.646v76.121a2.646 2.646 0 0 0 2.646 2.646h76.121a2.646 2.646 0 0 0 2.646-2.646V26.94z" />
  <path fill="#393939" d="M90.976 62.293a1.606 1.606 0 0 0-1.504-1.044H70.118L81.28 39.542a1.6 1.6 0 0 0-.434-1.992 1.596 1.596 0 0 0-2.039.045L43.544 68.051a1.602 1.602 0 0 0 1.047 2.816h19.355L52.782 92.574a1.6 1.6 0 0 0 .434 1.993 1.596 1.596 0 0 0 2.04-.045l35.263-30.456c.508-.438.69-1.145.457-1.773z" />
  <path fill="#ffac33" d="M89.918 61.235a1.606 1.606 0 0 0-1.504-1.044H69.06l11.163-21.707a1.6 1.6 0 0 0-.434-1.992 1.596 1.596 0 0 0-2.039.045L42.486 66.993a1.602 1.602 0 0 0 1.047 2.816h19.355L51.724 91.516a1.6 1.6 0 0 0 .434 1.993 1.596 1.596 0 0 0 2.04-.045L89.46 63.008c.508-.438.69-1.145.457-1.773z" />
  <path class="text" d="M161.41 67.807 158.44 24.03h-23.116l7.595 9.652-23.226 92.84 19.153-21.027 9.466-38.032 2.752 31.023h5.724l17.942-29.759-9.026 36.768h13.87l20.474-81.464h-13.1zM201.805 51.376h13.429l3.302-13.098h-13.429zm-13.54 54.693h12.769l12.988-50.326h-12.988zM249.246 55.743h-18.712c-4.733 0-9.136 1.838-10.237 7.124-1.761 5.975-8.806 31.597-8.806 35.964 0 4.94 3.633 6.549 7.705 6.549h18.713c11.888 0 11.997-13.674 14.419-22.866l-14.86 7.354-1.1 4.94H225.14l7.155-28.61h11.227l-1.1 4.136 11.557 5.745c.99-4.136 3.302-9.881 3.302-14.247 0-4.596-4.293-6.09-8.035-6.09zM293.937 55.628c-4.292 0-8.695.575-12.658.805l.22-.69h-22.455l6.934 9.077-9.686 40.56h12.438l9.907-38.721h9.246l-2.752 10.685 14.53-5.86c.66-3.217 2.421-6.779 2.421-9.88 0-4.827-4.402-5.976-8.145-5.976zM336.309 55.743h-19.923c-4.733 0-9.026 1.838-10.237 7.124-1.651 6.434-8.806 31.712-8.806 36.653 0 4.596 3.962 5.86 7.815 5.86h19.814c4.843 0 9.026-1.953 10.457-7.124 1.32-5.4 9.026-32.632 9.026-36.423 0-4.596-4.293-6.09-8.146-6.09zm-5.944 10.456-7.155 28.61h-12.108l7.154-28.61zM405.548 24.03h-57.79l13.87 11.605h23.225L342.805 97.91l-1.431 7.583h56.248L387.384 93.89h-26.197l42.379-62.392zM414.25 51.376h13.428l3.302-13.098h-13.429zm-13.54 54.693h12.768l12.988-50.326h-12.988zM457.178 56.547c-3.962-.345-7.925-.92-11.998-.92-6.604 0-13.869 3.907-15.85 11.031-1.981 7.469-6.824 21.142-6.824 28.84 0 11.49 14.97 9.881 22.014 9.881l-1.54 6.205h-15.63l-10.348 10.456h27.74c3.962 0 9.465-2.413 10.456-6.894l15.19-59.404H457.4zm-9.906 38.262h-9.026c-.55 0-2.532 0-2.862-.69 2.312-8.273 4.183-16.775 6.274-24.818.66-2.643 3.303-3.217 5.394-3.217 2.421 0 5.173.115 7.595.345z" />
</svg>