<?xml version="1.0" encoding="UTF-8"?>
<svg enable-background="new 0 0 426 426" version="1.1" viewBox="0 0 426 426" xmlns="http://www.w3.org/2000/svg">
 <g>
  <path d="m110.24 10v49.152h20v-49.152zm46.381 0v49.152h20v-49.152zm46.381 0v49.152h20v-49.152zm46.381 0v49.152h20v-49.152zm46.381 0v49.152h20v-49.152zm-285.76 100.24v20h49.152c2e-5 -5.5231-1.6e-5 -14.377 0-20zm356.85 0c-1e-5 7.1146 0 13.71 0 20h49.152v-20zm-356.85 46.381v20h49.152c2.2e-5 -5.6032-2.3e-5 -14.485 0-20zm356.85 0c-1e-5 5.5031 1e-5 14.865 0 20h49.152v-20zm-356.85 46.381v20h49.152c1.4e-5 -6.1178-1.9e-5 -14.157 0-20zm356.85 0c-2e-5 4.9502 2e-5 14.962 0 20h49.152v-20zm-356.85 46.381v20h49.152c-4e-6 -7.0669-5e-6 -13.396 0-20zm356.85 0c-3e-5 5.4558 3e-5 14 0 20h49.152v-20zm-356.85 46.381v20h49.152c-3.4e-5 -8.4505 1.9e-5 -12.199 0-20zm356.85 0c-5e-5 7.0199 5e-5 11.979 0 20h49.152v-20zm-256.61 71.086v49.152h20v-49.152zm46.381 0v49.152h20v-49.152zm46.381 0v49.152h20v-49.152zm46.381 0v49.152h20v-49.152zm46.381 0v49.152h20v-49.152z" fill="#acacac"/>
  <path d="m366.85 69.152c0-5.523-4.477-10-10-10h-287.7c-5.523 0-10 4.477-10 10 0 87.467-9.83e-4 143.29 0 287.7 0 5.523 4.477 10 10 10h287.7c5.523 0 10-4.477 10-10 1e-3 -153.85 1e-3 -152.1 1e-3 -287.7z" fill="#262626"/>
  <path d="m307.5 202.77c-0.88451-2.3688-3.1503-3.944-5.6827-3.944h-73.154l42.196-82.042c1.3268-2.5808 0.64218-5.7372-1.6418-7.5305-1.1026-0.8724-2.4294-1.3025-3.7501-1.3025-1.4116 0-2.8232 0.49678-3.9561 1.4722l-133.28 115.11c-1.9144 1.6539-2.6051 4.3256-1.7206 6.6944 0.88452 2.3688 3.1443 3.95 5.6766 3.95h73.154l-42.196 82.042c-1.3268 2.5808-0.64218 5.7372 1.6418 7.5305 1.1026 0.87239 2.4294 1.3025 3.7501 1.3025 1.4116 0 2.8232-0.49678 3.9561-1.4722l133.28-115.11c1.9205-1.6539 2.6051-4.3256 1.7266-6.7005z" fill="#393939" stroke-width="6.0583"/>
 </g>
 <path d="m303.5 198.77c-0.88451-2.3688-3.1503-3.944-5.6827-3.944h-73.154l42.196-82.042c1.3268-2.5808 0.64218-5.7372-1.6418-7.5305-1.1026-0.8724-2.4294-1.3025-3.7501-1.3025-1.4116 0-2.8232 0.49678-3.9561 1.4722l-133.28 115.11c-1.9144 1.6539-2.6051 4.3256-1.7206 6.6944 0.88452 2.3688 3.1443 3.95 5.6766 3.95h73.154l-42.196 82.042c-1.3268 2.5808-0.64218 5.7372 1.6418 7.5305 1.1026 0.87239 2.4294 1.3025 3.7501 1.3025 1.4116 0 2.8232-0.49678 3.9561-1.4722l133.28-115.11c1.9205-1.6539 2.6051-4.3256 1.7266-6.7005z" fill="#ffac33" stroke-width="6.0583"/>
</svg>
