<?xml version="1.0" encoding="UTF-8"?>
<!-- Created with Inkscape (http://www.inkscape.org/) -->
<svg width="446mm" height="120mm" version="1.1" viewBox="0 0 446 120" xmlns="http://www.w3.org/2000/svg" xmlns:xlink="http://www.w3.org/1999/xlink">
 <image x="4.4005" y="3.6437" width="112.71" height="112.71" preserveAspectRatio="none" xlink:href="file:///home/felix/projects/zeg/microzig/design/logo.svg"/>
 <g transform="scale(.97878 1.0217)" stroke-width="2.6133" aria-label="MicroZig">
  <path d="m156.68 58.333-2.7701-39.089h-21.545l7.0792 8.6181-21.648 82.898 17.852-18.775 8.8233-33.96 2.5649 27.701h5.335l16.723-26.573-8.413 32.831h12.927l19.083-72.741h-12.209z"/>
  <path d="m194.33 43.661h12.517l3.0779-11.696h-12.517zm-12.619 48.836h11.901l12.106-44.937h-12.106z"/>
  <path d="m238.55 47.56h-17.441c-4.4117 0-8.5156 1.6416-9.5415 6.361-1.6416 5.335-8.2078 28.214-8.2078 32.113 0 4.4117 3.3857 5.848 7.1818 5.848h17.441c11.08 0 11.183-12.209 13.44-20.417l-13.851 6.5662-1.026 4.4117h-10.465l6.6688-25.547h10.465l-1.026 3.6935 10.773 5.1298c0.92337-3.6935 3.0779-8.8233 3.0779-12.722 0-4.1039-4.0013-5.4376-7.4896-5.4376z"/>
  <path d="m280.2 47.458c-4.0013 0-8.1052 0.51298-11.799 0.71818l0.20519-0.61558h-20.93l6.4636 8.1052-9.0285 36.217h11.593l9.2337-34.575h8.6182l-2.5649 9.5415 13.543-5.2324c0.61559-2.8727 2.2571-6.0532 2.2571-8.8233 0-4.3091-4.1039-5.335-7.5922-5.335z"/>
  <path d="m319.7 47.56h-18.57c-4.4117 0-8.413 1.6416-9.5415 6.361-1.539 5.7454-8.2078 28.317-8.2078 32.728 0 4.1039 3.6935 5.2324 7.2844 5.2324h18.467c4.5143 0 8.413-1.7441 9.7467-6.361 1.2312-4.8221 8.413-29.138 8.413-32.523 0-4.1039-4.0013-5.4376-7.5922-5.4376zm-5.5402 9.3363-6.6688 25.547h-11.286l6.6688-25.547z"/>
  <path d="m384.24 19.243h-53.863l12.927 10.362h21.648l-39.192 55.608-1.3338 6.7714h52.427l-9.5415-10.362h-24.418l39.5-55.71z"/>
  <path d="m392.34 43.661h12.517l3.0779-11.696h-12.517zm-12.619 48.836h11.901l12.106-44.937h-12.106z"/>
  <path d="m432.35 48.278c-3.6935-0.30779-7.387-0.82078-11.183-0.82078-6.1558 0-12.927 3.4883-14.774 9.8493-1.8468 6.6688-6.361 18.878-6.361 25.752 0 10.26 13.953 8.8233 20.519 8.8233l-1.4364 5.5402h-14.569l-9.6441 9.3363h25.854c3.6935 0 8.8233-2.1545 9.7467-6.1558l14.158-53.043h-12.106zm-9.2337 34.165h-8.413c-0.51298 0-2.3597 0-2.6675-0.61558 2.1545-7.387 3.8987-14.979 5.848-22.161 0.61558-2.3597 3.0779-2.8727 5.0272-2.8727 2.2571 0 4.8221 0.1026 7.0792 0.30779z"/>
 </g>
</svg>
