<?xml version="1.0" encoding="UTF-8"?>
<!-- Created with Inkscape (http://www.inkscape.org/) -->
<svg width="778mm" height="120mm" version="1.1" viewBox="0 0 778 120" xmlns="http://www.w3.org/2000/svg" xmlns:xlink="http://www.w3.org/1999/xlink">
 <image x="4.4005" y="3.6437" width="112.71" height="112.71" preserveAspectRatio="none" xlink:href="file:///home/felix/projects/zeg/microzig/design/logo.svg"/>
 <g transform="scale(.97878 1.0217)" stroke-width="3.2646" aria-label="MicroZig">
  <path d="m126.64 97.499v-77.881h11.126v11.126h11.126v11.126h11.126v11.126h11.126v-11.126h11.126v-11.126h11.126v-11.126h11.126v77.881h-22.252v-33.378h-11.126v11.126h-11.126v-11.126h-11.126v33.378z"/>
  <path d="m237.9 52.996h-11.126v-11.126h33.378v44.503h11.126v11.126h-44.503v-11.126h11.126zm22.252-33.378v11.126h-22.252v-11.126z"/>
  <path d="m338.03 86.373v-11.126h22.252v11.126h-11.126v11.126h-44.503v-11.126h-11.126v-33.378h11.126v-11.126h44.503v11.126h11.126v11.126h-22.252v-11.126h-22.252v33.378z"/>
  <path d="m404.79 52.996v44.503h-22.252v-55.629h55.629v11.126h11.126v22.252h-22.252v-22.252z"/>
  <path d="m493.8 86.373h22.252v-33.378h-22.252zm33.378 0v11.126h-44.503v-11.126h-11.126v-33.378h11.126v-11.126h44.503v11.126h11.126v33.378z"/>
  <path d="m605.05 30.744h-44.503v-11.126h66.755v22.252h-11.126v11.126h-11.126v11.126h-11.126v11.126h-11.126v11.126h44.503v11.126h-66.755v-22.252h11.126v-11.126h11.126v-11.126h11.126v-11.126h11.126z"/>
  <path d="m660.68 52.996h-11.126v-11.126h33.378v44.503h11.126v11.126h-44.503v-11.126h11.126zm22.252-33.378v11.126h-22.252v-11.126z"/>
  <path d="m727.44 52.996v-11.126h55.629v55.629h-11.126v11.126h-44.503v-11.126h33.378v-11.126h-33.378v-11.126h-11.126v-22.252zm33.378 0h-22.252v22.252h22.252z"/>
 </g>
</svg>
