<?xml version="1.0" encoding="UTF-8" standalone="no"?>
<!DOCTYPE svg PUBLIC "-//W3C//DTD SVG 1.1//EN"
 "http://www.w3.org/Graphics/SVG/1.1/DTD/svg11.dtd">
<!-- Generated by graphviz version 2.50.0 (0)
 -->
<!-- Pages: 1 -->
<svg width="546pt" height="299pt"
 viewBox="0.00 0.00 546.00 299.00" xmlns="http://www.w3.org/2000/svg" xmlns:xlink="http://www.w3.org/1999/xlink">
<g id="graph0" class="graph" transform="scale(1 1) rotate(0) translate(4 295)">
<polygon fill="white" stroke="transparent" points="-4,4 -4,-295 542,-295 542,4 -4,4"/>
<g id="clust1" class="cluster">
<title>cluster_0</title>
<polygon fill="none" stroke="black" stroke-dasharray="1,5" points="8,-8 8,-155 168,-155 168,-8 8,-8"/>
<text text-anchor="middle" x="88" y="-15.8" font-family="Times,serif" font-size="14.00">Application Dependencies</text>
</g>
<!-- root -->
<g id="node1" class="node">
<title>root</title>
<ellipse fill="none" stroke="black" cx="209" cy="-273" rx="27" ry="18"/>
<text text-anchor="middle" x="209" y="-269.3" font-family="Times,serif" font-size="14.00">root</text>
</g>
<!-- app -->
<g id="node2" class="node">
<title>app</title>
<ellipse fill="none" stroke="black" cx="182" cy="-201" rx="27" ry="18"/>
<text text-anchor="middle" x="182" y="-197.3" font-family="Times,serif" font-size="14.00">app</text>
</g>
<!-- root&#45;&gt;app -->
<g id="edge1" class="edge">
<title>root&#45;&gt;app</title>
<path fill="none" stroke="black" d="M202.6,-255.41C199.49,-247.34 195.67,-237.43 192.17,-228.35"/>
<polygon fill="black" stroke="black" points="195.4,-227.03 188.54,-218.96 188.87,-229.55 195.4,-227.03"/>
</g>
<!-- microzig -->
<g id="node3" class="node">
<title>microzig</title>
<ellipse fill="none" stroke="black" cx="287" cy="-129" rx="42.49" ry="18"/>
<text text-anchor="middle" x="287" y="-125.3" font-family="Times,serif" font-size="14.00">microzig</text>
</g>
<!-- root&#45;&gt;microzig -->
<g id="edge2" class="edge">
<title>root&#45;&gt;microzig</title>
<path fill="none" stroke="black" d="M217.95,-255.71C231.38,-231.26 256.88,-184.83 272.85,-155.76"/>
<polygon fill="black" stroke="black" points="275.93,-157.43 277.67,-146.98 269.79,-154.06 275.93,-157.43"/>
</g>
<!-- app&#45;&gt;microzig -->
<g id="edge3" class="edge">
<title>app&#45;&gt;microzig</title>
<path fill="none" stroke="black" d="M200.77,-187.49C216.28,-177.14 238.61,-162.26 256.66,-150.23"/>
<polygon fill="black" stroke="black" points="258.74,-153.04 265.12,-144.59 254.86,-147.22 258.74,-153.04"/>
</g>
<!-- A -->
<g id="node4" class="node">
<title>A</title>
<ellipse fill="none" stroke="black" cx="133" cy="-129" rx="27" ry="18"/>
<text text-anchor="middle" x="133" y="-125.3" font-family="Times,serif" font-size="14.00">A</text>
</g>
<!-- app&#45;&gt;A -->
<g id="edge4" class="edge">
<title>app&#45;&gt;A</title>
<path fill="none" stroke="black" d="M171.13,-184.46C164.84,-175.49 156.81,-164.02 149.74,-153.92"/>
<polygon fill="black" stroke="black" points="152.45,-151.68 143.84,-145.49 146.71,-155.69 152.45,-151.68"/>
</g>
<!-- B -->
<g id="node5" class="node">
<title>B</title>
<ellipse fill="none" stroke="black" cx="61" cy="-129" rx="27" ry="18"/>
<text text-anchor="middle" x="61" y="-125.3" font-family="Times,serif" font-size="14.00">B</text>
</g>
<!-- app&#45;&gt;B -->
<g id="edge5" class="edge">
<title>app&#45;&gt;B</title>
<path fill="none" stroke="black" d="M160.65,-189.59C143.22,-180.88 118.11,-167.85 97,-155 93.75,-153.02 90.41,-150.87 87.12,-148.68"/>
<polygon fill="black" stroke="black" points="88.89,-145.65 78.66,-142.89 84.94,-151.43 88.89,-145.65"/>
</g>
<!-- config -->
<g id="node8" class="node">
<title>config</title>
<ellipse fill="none" stroke="black" cx="209" cy="-57" rx="33.29" ry="18"/>
<text text-anchor="middle" x="209" y="-53.3" font-family="Times,serif" font-size="14.00">config</text>
</g>
<!-- microzig&#45;&gt;config -->
<g id="edge9" class="edge">
<title>microzig&#45;&gt;config</title>
<path fill="none" stroke="black" d="M269.69,-112.46C258.97,-102.84 245.04,-90.34 233.23,-79.75"/>
<polygon fill="black" stroke="black" points="235.24,-76.85 225.46,-72.77 230.57,-82.06 235.24,-76.85"/>
</g>
<!-- cpu -->
<g id="node9" class="node">
<title>cpu</title>
<ellipse fill="none" stroke="black" cx="287" cy="-57" rx="27" ry="18"/>
<text text-anchor="middle" x="287" y="-53.3" font-family="Times,serif" font-size="14.00">cpu</text>
</g>
<!-- microzig&#45;&gt;cpu -->
<g id="edge10" class="edge">
<title>microzig&#45;&gt;cpu</title>
<path fill="none" stroke="black" d="M287,-100.67C287,-95.69 287,-90.49 287,-85.51"/>
<polygon fill="black" stroke="black" points="283.5,-100.7 287,-110.7 290.5,-100.7 283.5,-100.7"/>
<polygon fill="black" stroke="black" points="290.5,-85.1 287,-75.1 283.5,-85.1 290.5,-85.1"/>
</g>
<!-- chip -->
<g id="node10" class="node">
<title>chip</title>
<ellipse fill="none" stroke="black" cx="359" cy="-57" rx="27" ry="18"/>
<text text-anchor="middle" x="359" y="-53.3" font-family="Times,serif" font-size="14.00">chip</text>
</g>
<!-- microzig&#45;&gt;chip -->
<g id="edge11" class="edge">
<title>microzig&#45;&gt;chip</title>
<path fill="none" stroke="black" d="M310.65,-105.01C319.12,-96.78 328.62,-87.54 336.94,-79.44"/>
<polygon fill="black" stroke="black" points="308.07,-102.64 303.34,-112.12 312.95,-107.65 308.07,-102.64"/>
<polygon fill="black" stroke="black" points="339.47,-81.87 344.2,-72.39 334.59,-76.85 339.47,-81.87"/>
</g>
<!-- board -->
<g id="node11" class="node">
<title>board</title>
<ellipse fill="none" stroke="black" cx="435" cy="-57" rx="30.59" ry="18"/>
<text text-anchor="middle" x="435" y="-53.3" font-family="Times,serif" font-size="14.00">board</text>
</g>
<!-- microzig&#45;&gt;board -->
<g id="edge12" class="edge">
<title>microzig&#45;&gt;board</title>
<path fill="none" stroke="black" stroke-dasharray="5,2" d="M323.49,-110.74C347.78,-99.25 379.41,-84.29 402.77,-73.24"/>
<polygon fill="black" stroke="black" points="321.69,-107.72 314.15,-115.16 324.68,-114.05 321.69,-107.72"/>
<polygon fill="black" stroke="black" points="404.37,-76.36 411.92,-68.92 401.38,-70.03 404.37,-76.36"/>
</g>
<!-- hal -->
<g id="node12" class="node">
<title>hal</title>
<ellipse fill="none" stroke="black" cx="511" cy="-57" rx="27" ry="18"/>
<text text-anchor="middle" x="511" y="-53.3" font-family="Times,serif" font-size="14.00">hal</text>
</g>
<!-- microzig&#45;&gt;hal -->
<g id="edge13" class="edge">
<title>microzig&#45;&gt;hal</title>
<path fill="none" stroke="black" stroke-dasharray="5,2" d="M333.14,-117.27C371.63,-107.79 427.62,-92.72 475,-75 476.84,-74.31 478.73,-73.56 480.61,-72.78"/>
<polygon fill="black" stroke="black" points="332.15,-113.91 323.26,-119.68 333.81,-120.71 332.15,-113.91"/>
<polygon fill="black" stroke="black" points="482.2,-75.91 489.93,-68.66 479.37,-69.5 482.2,-75.91"/>
</g>
<!-- C -->
<g id="node6" class="node">
<title>C</title>
<ellipse fill="none" stroke="black" cx="131" cy="-57" rx="27" ry="18"/>
<text text-anchor="middle" x="131" y="-53.3" font-family="Times,serif" font-size="14.00">C</text>
</g>
<!-- A&#45;&gt;C -->
<g id="edge6" class="edge">
<title>A&#45;&gt;C</title>
<path fill="none" stroke="black" d="M132.51,-110.7C132.29,-102.98 132.02,-93.71 131.77,-85.11"/>
<polygon fill="black" stroke="black" points="135.27,-85 131.49,-75.1 128.28,-85.2 135.27,-85"/>
</g>
<!-- B&#45;&gt;C -->
<g id="edge7" class="edge">
<title>B&#45;&gt;C</title>
<path fill="none" stroke="black" d="M75.5,-113.5C85.27,-103.73 98.31,-90.69 109.3,-79.7"/>
<polygon fill="black" stroke="black" points="111.92,-82.03 116.51,-72.49 106.97,-77.08 111.92,-82.03"/>
</g>
<!-- D -->
<g id="node7" class="node">
<title>D</title>
<ellipse fill="none" stroke="black" cx="59" cy="-57" rx="27" ry="18"/>
<text text-anchor="middle" x="59" y="-53.3" font-family="Times,serif" font-size="14.00">D</text>
</g>
<!-- B&#45;&gt;D -->
<g id="edge8" class="edge">
<title>B&#45;&gt;D</title>
<path fill="none" stroke="black" d="M60.51,-110.7C60.29,-102.98 60.02,-93.71 59.77,-85.11"/>
<polygon fill="black" stroke="black" points="63.27,-85 59.49,-75.1 56.28,-85.2 63.27,-85"/>
</g>
</g>
</svg>
