<?xml version="1.0" encoding="UTF-8" standalone="no"?>
<!DOCTYPE svg PUBLIC "-//W3C//DTD SVG 1.1//EN"
 "http://www.w3.org/Graphics/SVG/1.1/DTD/svg11.dtd">
<!-- Generated by graphviz version 2.50.0 (0)
 -->
<!-- Pages: 1 -->
<svg width="286pt" height="260pt"
 viewBox="0.00 0.00 286.00 260.00" xmlns="http://www.w3.org/2000/svg" xmlns:xlink="http://www.w3.org/1999/xlink">
<g id="graph0" class="graph" transform="scale(1 1) rotate(0) translate(4 256)">
<polygon fill="white" stroke="transparent" points="-4,4 -4,-256 282,-256 282,4 -4,4"/>
<!-- root -->
<g id="node1" class="node">
<title>root</title>
<ellipse fill="none" stroke="black" cx="137" cy="-234" rx="27" ry="18"/>
<text text-anchor="middle" x="137" y="-230.3" font-family="Times,serif" font-size="14.00">root</text>
</g>
<!-- app -->
<g id="node2" class="node">
<title>app</title>
<ellipse fill="none" stroke="black" cx="110" cy="-162" rx="27" ry="18"/>
<text text-anchor="middle" x="110" y="-158.3" font-family="Times,serif" font-size="14.00">app</text>
</g>
<!-- root&#45;&gt;app -->
<g id="edge1" class="edge">
<title>root&#45;&gt;app</title>
<path fill="none" stroke="black" d="M130.6,-216.41C127.49,-208.34 123.67,-198.43 120.17,-189.35"/>
<polygon fill="black" stroke="black" points="123.4,-188.03 116.54,-179.96 116.87,-190.55 123.4,-188.03"/>
</g>
<!-- microzig -->
<g id="node3" class="node">
<title>microzig</title>
<ellipse fill="none" stroke="black" cx="137" cy="-90" rx="42.49" ry="18"/>
<text text-anchor="middle" x="137" y="-86.3" font-family="Times,serif" font-size="14.00">microzig</text>
</g>
<!-- root&#45;&gt;microzig -->
<g id="edge2" class="edge">
<title>root&#45;&gt;microzig</title>
<path fill="none" stroke="black" d="M140.65,-215.91C142.68,-205.57 144.98,-192.09 146,-180 147.34,-164.06 147.34,-159.94 146,-144 145.28,-135.5 143.93,-126.31 142.49,-118.01"/>
<polygon fill="black" stroke="black" points="145.91,-117.29 140.65,-108.09 139.03,-118.56 145.91,-117.29"/>
</g>
<!-- app&#45;&gt;microzig -->
<g id="edge3" class="edge">
<title>app&#45;&gt;microzig</title>
<path fill="none" stroke="black" d="M116.4,-144.41C119.51,-136.34 123.33,-126.43 126.83,-117.35"/>
<polygon fill="black" stroke="black" points="130.13,-118.55 130.46,-107.96 123.6,-116.03 130.13,-118.55"/>
</g>
<!-- cpu -->
<g id="node4" class="node">
<title>cpu</title>
<ellipse fill="none" stroke="black" cx="27" cy="-18" rx="27" ry="18"/>
<text text-anchor="middle" x="27" y="-14.3" font-family="Times,serif" font-size="14.00">cpu</text>
</g>
<!-- microzig&#45;&gt;cpu -->
<g id="edge4" class="edge">
<title>microzig&#45;&gt;cpu</title>
<path fill="none" stroke="black" d="M114.47,-74.67C97.08,-63.6 72.94,-48.23 54.42,-36.45"/>
<polygon fill="black" stroke="black" points="56.15,-33.4 45.84,-30.99 52.39,-39.31 56.15,-33.4"/>
</g>
<!-- chip -->
<g id="node5" class="node">
<title>chip</title>
<ellipse fill="none" stroke="black" cx="99" cy="-18" rx="27" ry="18"/>
<text text-anchor="middle" x="99" y="-14.3" font-family="Times,serif" font-size="14.00">chip</text>
</g>
<!-- microzig&#45;&gt;chip -->
<g id="edge5" class="edge">
<title>microzig&#45;&gt;chip</title>
<path fill="none" stroke="black" d="M127.99,-72.41C123.45,-64.04 117.84,-53.71 112.77,-44.37"/>
<polygon fill="black" stroke="black" points="115.79,-42.59 107.94,-35.47 109.64,-45.93 115.79,-42.59"/>
</g>
<!-- board -->
<g id="node6" class="node">
<title>board</title>
<ellipse fill="none" stroke="black" cx="175" cy="-18" rx="30.59" ry="18"/>
<text text-anchor="middle" x="175" y="-14.3" font-family="Times,serif" font-size="14.00">board</text>
</g>
<!-- microzig&#45;&gt;board -->
<g id="edge6" class="edge">
<title>microzig&#45;&gt;board</title>
<path fill="none" stroke="black" d="M146.01,-72.41C150.55,-64.04 156.16,-53.71 161.23,-44.37"/>
<polygon fill="black" stroke="black" points="164.36,-45.93 166.06,-35.47 158.21,-42.59 164.36,-45.93"/>
</g>
<!-- hal -->
<g id="node7" class="node">
<title>hal</title>
<ellipse fill="none" stroke="black" cx="251" cy="-18" rx="27" ry="18"/>
<text text-anchor="middle" x="251" y="-14.3" font-family="Times,serif" font-size="14.00">hal</text>
</g>
<!-- microzig&#45;&gt;hal -->
<g id="edge7" class="edge">
<title>microzig&#45;&gt;hal</title>
<path fill="none" stroke="black" d="M160.07,-74.83C178.27,-63.66 203.72,-48.03 223.07,-36.15"/>
<polygon fill="black" stroke="black" points="225.06,-39.04 231.75,-30.82 221.4,-33.07 225.06,-39.04"/>
</g>
</g>
</svg>
